<mxfile host="app.diagrams.net" modified="2021-05-07T14:03:22.384Z" agent="5.0 (Windows NT 10.0; Win64; x64) AppleWebKit/537.36 (KHTML, like Gecko) Chrome/90.0.4430.93 Safari/537.36" etag="TpgstfvSh8Or52Rc-V18" version="14.6.10" type="github">
  <diagram id="C5RBs43oDa-KdzZeNtuy" name="Page-1">
    <mxGraphModel dx="1102" dy="582" grid="1" gridSize="10" guides="1" tooltips="1" connect="1" arrows="1" fold="1" page="1" pageScale="1" pageWidth="827" pageHeight="1169" math="0" shadow="0">
      <root>
        <mxCell id="WIyWlLk6GJQsqaUBKTNV-0" />
        <mxCell id="WIyWlLk6GJQsqaUBKTNV-1" parent="WIyWlLk6GJQsqaUBKTNV-0" />
        <mxCell id="1YYs1XJ9HoQRJXA_1YcX-0" value="" style="rounded=0;html=1;jettySize=auto;orthogonalLoop=1;fontSize=11;endArrow=block;endFill=0;endSize=8;strokeWidth=1;shadow=0;labelBackgroundColor=none;edgeStyle=orthogonalEdgeStyle;entryX=0.5;entryY=0;entryDx=0;entryDy=0;" parent="WIyWlLk6GJQsqaUBKTNV-1" target="1YYs1XJ9HoQRJXA_1YcX-21" edge="1">
          <mxGeometry relative="1" as="geometry">
            <mxPoint x="220" y="272" as="targetPoint" />
            <mxPoint x="220" y="210" as="sourcePoint" />
          </mxGeometry>
        </mxCell>
        <mxCell id="1YYs1XJ9HoQRJXA_1YcX-5" value="Fecha de consulta &amp;lt;= 6 meses&amp;nbsp;&lt;br&gt;" style="rhombus;whiteSpace=wrap;html=1;shadow=0;fontFamily=Helvetica;fontSize=12;align=center;strokeWidth=1;spacing=6;spacingTop=-4;" parent="WIyWlLk6GJQsqaUBKTNV-1" vertex="1">
          <mxGeometry x="130" y="430" width="180" height="138" as="geometry" />
        </mxCell>
        <mxCell id="1YYs1XJ9HoQRJXA_1YcX-9" value="No" style="edgeStyle=orthogonalEdgeStyle;rounded=0;html=1;jettySize=auto;orthogonalLoop=1;fontSize=11;endArrow=block;endFill=0;endSize=8;strokeWidth=1;shadow=0;labelBackgroundColor=none;exitX=1;exitY=0.5;exitDx=0;exitDy=0;entryX=0.5;entryY=0;entryDx=0;entryDy=0;" parent="WIyWlLk6GJQsqaUBKTNV-1" source="1YYs1XJ9HoQRJXA_1YcX-5" target="1YYs1XJ9HoQRJXA_1YcX-22" edge="1">
          <mxGeometry y="10" relative="1" as="geometry">
            <mxPoint as="offset" />
            <mxPoint x="280" y="398" as="sourcePoint" />
            <mxPoint x="560" y="499" as="targetPoint" />
            <Array as="points">
              <mxPoint x="550" y="499" />
            </Array>
          </mxGeometry>
        </mxCell>
        <mxCell id="1YYs1XJ9HoQRJXA_1YcX-11" value="" style="endArrow=classic;html=1;rounded=0;edgeStyle=orthogonalEdgeStyle;exitX=0.5;exitY=1;exitDx=0;exitDy=0;" parent="WIyWlLk6GJQsqaUBKTNV-1" source="1YYs1XJ9HoQRJXA_1YcX-5" edge="1">
          <mxGeometry width="50" height="50" relative="1" as="geometry">
            <mxPoint x="190" y="702" as="sourcePoint" />
            <mxPoint x="220" y="662" as="targetPoint" />
          </mxGeometry>
        </mxCell>
        <mxCell id="1YYs1XJ9HoQRJXA_1YcX-19" value="CRITERIO DE ACEPTACIÓN 1&amp;nbsp;" style="text;html=1;align=center;verticalAlign=middle;resizable=0;points=[];autosize=1;strokeColor=none;" parent="WIyWlLk6GJQsqaUBKTNV-1" vertex="1">
          <mxGeometry x="125" y="122" width="190" height="20" as="geometry" />
        </mxCell>
        <mxCell id="1YYs1XJ9HoQRJXA_1YcX-21" value="&lt;b&gt;Obtener:&lt;br&gt;&lt;/b&gt;&amp;nbsp; ● Número de crédito &lt;br/&gt;Compensar &lt;br/&gt;● Periodo &lt;br/&gt;● Código Core (no visible &lt;br/&gt;en pantalla)&lt;br/&gt;● Botón de generar&lt;b&gt;&lt;br&gt;&lt;/b&gt;" style="rounded=0;whiteSpace=wrap;html=1;" parent="WIyWlLk6GJQsqaUBKTNV-1" vertex="1">
          <mxGeometry x="140" y="240" width="160" height="100" as="geometry" />
        </mxCell>
        <mxCell id="1YYs1XJ9HoQRJXA_1YcX-22" value="No hay información disponible para extractos" style="rounded=1;whiteSpace=wrap;html=1;fontSize=12;glass=0;strokeWidth=1;shadow=0;" parent="WIyWlLk6GJQsqaUBKTNV-1" vertex="1">
          <mxGeometry x="490" y="550" width="120" height="50" as="geometry" />
        </mxCell>
        <mxCell id="1YYs1XJ9HoQRJXA_1YcX-37" value="SI" style="text;html=1;align=center;verticalAlign=middle;resizable=0;points=[];autosize=1;strokeColor=none;" parent="WIyWlLk6GJQsqaUBKTNV-1" vertex="1">
          <mxGeometry x="225" y="630" width="30" height="20" as="geometry" />
        </mxCell>
        <mxCell id="1YYs1XJ9HoQRJXA_1YcX-43" value="" style="rounded=0;html=1;jettySize=auto;orthogonalLoop=1;fontSize=11;endArrow=block;endFill=0;endSize=8;strokeWidth=1;shadow=0;labelBackgroundColor=none;edgeStyle=orthogonalEdgeStyle;entryX=0.5;entryY=0;entryDx=0;entryDy=0;exitX=0.5;exitY=1;exitDx=0;exitDy=0;" parent="WIyWlLk6GJQsqaUBKTNV-1" source="1YYs1XJ9HoQRJXA_1YcX-21" target="1YYs1XJ9HoQRJXA_1YcX-44" edge="1">
          <mxGeometry relative="1" as="geometry">
            <mxPoint x="220" y="330" as="sourcePoint" />
            <mxPoint x="219.86" y="360" as="targetPoint" />
            <Array as="points" />
          </mxGeometry>
        </mxCell>
        <mxCell id="1YYs1XJ9HoQRJXA_1YcX-44" value="&lt;b&gt;Consultar&lt;/b&gt;" style="rounded=0;whiteSpace=wrap;html=1;" parent="WIyWlLk6GJQsqaUBKTNV-1" vertex="1">
          <mxGeometry x="140" y="380" width="160" height="20" as="geometry" />
        </mxCell>
        <mxCell id="1YYs1XJ9HoQRJXA_1YcX-46" value="" style="rounded=0;html=1;jettySize=auto;orthogonalLoop=1;fontSize=11;endArrow=block;endFill=0;endSize=8;strokeWidth=1;shadow=0;labelBackgroundColor=none;edgeStyle=orthogonalEdgeStyle;entryX=0.5;entryY=0;entryDx=0;entryDy=0;exitX=0.5;exitY=1;exitDx=0;exitDy=0;" parent="WIyWlLk6GJQsqaUBKTNV-1" source="1YYs1XJ9HoQRJXA_1YcX-44" target="1YYs1XJ9HoQRJXA_1YcX-5" edge="1">
          <mxGeometry relative="1" as="geometry">
            <mxPoint x="245" y="389.9999999999999" as="sourcePoint" />
            <mxPoint x="240" y="420" as="targetPoint" />
            <Array as="points">
              <mxPoint x="215" y="400" />
              <mxPoint x="220" y="400" />
            </Array>
          </mxGeometry>
        </mxCell>
        <mxCell id="1YYs1XJ9HoQRJXA_1YcX-47" value="PROYECTO PORTAL CARTERA - COMPENSAR&lt;br&gt;Ing. J- A., Legarda valencia&lt;br&gt;Historia de usuario 103&amp;nbsp;&lt;br&gt;Backend" style="text;html=1;align=center;verticalAlign=middle;resizable=0;points=[];autosize=1;strokeColor=none;" parent="WIyWlLk6GJQsqaUBKTNV-1" vertex="1">
          <mxGeometry x="530" y="30" width="280" height="60" as="geometry" />
        </mxCell>
        <mxCell id="1YYs1XJ9HoQRJXA_1YcX-48" value="CRITERIO DE ACEPTACIÓN 4" style="text;html=1;align=center;verticalAlign=middle;resizable=0;points=[];autosize=1;strokeColor=none;" parent="WIyWlLk6GJQsqaUBKTNV-1" vertex="1">
          <mxGeometry x="130" y="122" width="180" height="20" as="geometry" />
        </mxCell>
        <mxCell id="18cucAAysj5go67WvTSq-0" value="&lt;b&gt;Generar&amp;nbsp;&lt;/b&gt;&lt;br&gt;&lt;b&gt;Extracto&lt;/b&gt;" style="rounded=1;whiteSpace=wrap;html=1;fontSize=12;glass=0;strokeWidth=1;shadow=0;" vertex="1" parent="WIyWlLk6GJQsqaUBKTNV-1">
          <mxGeometry x="130" y="660" width="180" height="50" as="geometry" />
        </mxCell>
        <mxCell id="18cucAAysj5go67WvTSq-1" value="" style="rounded=1;whiteSpace=wrap;html=1;" vertex="1" parent="WIyWlLk6GJQsqaUBKTNV-1">
          <mxGeometry x="155.5" y="150" width="130" height="60" as="geometry" />
        </mxCell>
        <mxCell id="18cucAAysj5go67WvTSq-2" value="Identificar Sistema origen" style="text;html=1;strokeColor=none;fillColor=none;align=center;verticalAlign=middle;whiteSpace=wrap;rounded=0;" vertex="1" parent="WIyWlLk6GJQsqaUBKTNV-1">
          <mxGeometry x="154.5" y="170" width="130" height="20" as="geometry" />
        </mxCell>
      </root>
    </mxGraphModel>
  </diagram>
</mxfile>
